<?xml version="1.0" encoding="UTF-8" ?>
<!DOCTYPE svg PUBLIC "-//W3C//DTD SVG 1.1//EN" "http://www.w3.org/Graphics/SVG/1.1/DTD/svg11.dtd">
<svg width="957pt" height="896pt" viewBox="0 0 957 896" version="1.1" xmlns="http://www.w3.org/2000/svg">
    <path fill="#ffffff" opacity="1.00"
          d=" M 456.09 16.20 C 463.12 12.36 469.63 7.51 477.11 4.56 C 479.52 3.80 481.88 5.00 483.98 6.06 C 491.26 9.99 497.86 15.10 505.31 18.74 C 510.61 21.30 515.36 24.83 520.60 27.51 C 530.74 33.67 541.46 38.85 551.30 45.53 C 563.75 51.98 575.49 59.67 587.90 66.19 C 595.46 70.63 602.76 75.52 610.60 79.47 C 620.25 84.76 629.34 91.04 639.29 95.79 C 650.21 102.16 661.02 108.72 671.97 115.04 C 678.21 117.95 683.70 122.20 689.96 125.07 C 696.33 128.05 701.92 132.36 707.94 135.93 C 727.06 145.84 745.15 157.58 764.00 167.99 C 765.88 169.04 767.94 169.90 769.53 171.40 C 770.15 178.24 770.49 185.14 769.85 192.00 C 769.70 203.00 769.56 214.02 770.22 225.00 C 769.48 233.66 770.86 242.34 769.91 251.00 C 769.66 258.99 769.61 267.01 769.95 275.00 C 770.95 283.66 769.19 292.33 769.87 301.00 C 770.77 309.99 769.67 319.00 770.16 328.00 C 769.15 337.66 770.20 347.34 770.15 357.00 C 769.01 364.99 770.85 373.00 769.86 381.00 C 769.37 386.67 770.18 392.33 770.22 398.00 C 769.51 409.98 769.52 422.01 770.25 433.99 C 770.36 438.00 770.20 442.01 769.87 446.00 C 769.50 451.01 770.39 455.99 770.28 461.00 C 770.42 469.40 768.59 477.97 770.75 486.24 C 771.50 490.94 777.28 490.73 780.95 491.20 C 816.63 491.31 852.32 491.20 888.00 491.25 C 893.33 491.18 898.67 490.53 904.00 491.16 C 920.61 491.33 937.22 491.37 953.81 490.86 C 954.83 498.23 953.54 505.61 953.75 513.00 C 953.65 518.67 953.80 524.34 954.16 530.00 C 953.54 542.65 953.55 555.35 954.14 568.00 C 953.73 574.99 953.47 582.01 954.09 589.00 C 954.93 607.00 952.78 625.01 954.19 643.00 C 953.53 656.26 953.75 669.55 953.82 682.84 C 928.21 682.79 902.59 682.49 877.00 683.05 C 866.34 682.09 855.66 683.52 845.00 682.77 C 825.00 682.72 805.00 682.80 785.00 682.73 C 780.61 682.77 775.89 682.71 771.96 684.96 C 767.80 693.38 770.69 703.05 770.11 712.00 C 769.66 716.19 769.96 720.42 769.57 724.61 C 765.71 727.60 761.00 729.25 756.98 732.01 C 742.29 740.21 728.02 749.14 713.30 757.29 C 708.95 759.50 704.96 762.33 700.64 764.58 C 691.27 769.37 682.73 775.62 673.32 780.33 C 658.02 789.38 642.37 797.81 627.20 807.09 C 610.09 817.01 592.71 826.43 575.85 836.80 C 557.68 846.78 539.86 857.40 521.95 867.88 C 512.21 872.50 503.50 878.96 494.00 884.02 C 489.30 886.49 485.09 890.01 479.95 891.56 C 474.69 892.25 470.71 887.89 466.38 885.63 C 440.44 870.94 414.79 855.74 388.85 841.04 C 382.73 836.94 375.88 834.12 369.70 830.12 C 354.98 822.02 340.82 812.93 326.04 804.91 C 302.80 791.15 279.19 778.03 256.04 764.11 C 238.76 754.84 222.04 744.57 204.98 734.90 C 199.55 731.34 193.28 728.99 188.44 724.57 C 187.91 717.73 188.57 710.84 187.80 704.00 C 187.16 698.06 188.99 692.07 187.75 686.21 C 187.09 683.21 183.61 682.77 181.07 682.75 C 122.01 682.78 62.96 682.71 3.90 682.79 C 3.16 665.85 5.08 648.93 3.95 632.00 C 3.48 627.00 4.58 621.99 3.95 617.00 C 3.10 609.33 4.80 601.66 3.92 594.00 C 3.56 583.67 3.71 573.32 4.07 563.00 C 3.12 555.33 4.76 547.66 3.89 540.00 C 3.54 530.33 3.72 520.65 4.27 511.00 C 4.72 504.88 2.72 498.60 4.62 492.62 C 5.38 490.90 7.47 491.42 8.97 491.23 C 63.98 491.27 118.99 491.22 174.00 491.26 C 177.59 491.19 181.26 491.60 184.79 490.76 C 186.57 490.39 187.74 488.68 187.92 486.95 C 189.02 480.33 187.28 473.65 187.83 467.00 C 188.25 462.01 188.47 456.99 187.96 452.00 C 187.23 445.00 188.46 438.01 188.28 431.00 C 188.33 425.99 187.51 421.01 187.83 416.00 C 189.18 395.68 187.15 375.33 187.90 355.00 C 188.69 349.00 187.39 342.99 188.10 337.00 C 188.86 329.33 187.20 321.67 188.00 314.00 C 188.68 307.66 187.28 301.34 187.84 294.99 C 188.65 286.01 188.20 276.99 187.75 268.00 C 188.24 258.68 188.63 249.32 187.82 240.00 C 187.57 231.00 188.87 222.00 188.01 213.00 C 187.43 207.67 188.02 202.32 188.19 196.99 C 188.33 194.12 187.67 190.83 189.88 188.55 C 195.15 192.45 201.09 195.34 206.81 198.52 C 207.25 230.01 206.87 261.51 207.00 293.00 C 207.01 358.40 206.97 423.80 207.02 489.20 C 215.12 489.29 223.23 489.30 231.33 489.20 C 231.35 466.85 231.52 444.48 231.27 422.13 C 231.75 423.19 232.23 424.25 232.76 425.30 C 231.85 429.47 231.43 433.73 231.52 438.00 C 231.81 455.05 231.37 472.11 231.74 489.16 C 240.90 489.38 250.06 489.22 259.23 489.22 C 405.24 489.24 551.25 489.33 697.26 489.18 C 697.42 486.46 697.50 483.74 697.92 481.06 C 697.66 483.74 697.62 486.43 697.58 489.13 C 706.99 489.37 716.41 489.24 725.83 489.25 C 733.87 489.25 741.92 489.30 749.97 489.20 C 750.05 433.80 749.98 378.40 750.00 323.00 C 749.88 276.16 750.26 229.31 749.81 182.47 C 717.87 164.44 686.25 145.82 654.44 127.55 C 599.48 95.85 544.54 64.11 489.58 32.40 C 486.21 30.49 483.03 28.21 479.43 26.77 C 478.12 26.05 476.84 27.08 475.67 27.58 C 427.09 55.73 378.41 83.73 329.81 111.86 C 326.22 113.86 322.84 116.33 318.95 117.74 C 312.70 113.95 307.99 108.10 302.24 103.62 C 305.26 103.61 307.80 101.87 310.28 100.38 C 322.54 92.81 335.33 86.18 347.67 78.75 C 352.78 75.38 358.53 73.12 363.58 69.64 C 372.10 63.95 381.36 59.53 390.04 54.10 C 399.92 49.71 408.32 42.74 418.03 38.02 C 430.65 30.63 443.47 23.60 456.09 16.20 M 22.80 511.03 C 22.73 561.67 22.72 612.32 22.80 662.97 C 326.60 663.00 630.40 663.00 934.19 662.97 C 934.29 612.33 934.29 561.68 934.19 511.03 C 630.39 510.99 326.60 511.00 22.80 511.03 M 207.01 684.79 C 206.97 694.22 207.03 703.65 206.96 713.08 C 229.19 726.27 251.71 738.97 274.05 751.96 C 341.48 790.88 408.90 829.81 476.32 868.75 C 478.91 870.84 481.60 868.01 483.95 866.91 C 572.21 815.79 660.61 764.92 748.90 713.87 C 750.21 713.14 749.78 711.31 750.01 710.09 C 750.07 701.66 749.98 693.23 749.98 684.80 C 568.99 684.70 388.00 684.73 207.01 684.79 Z"/>
    <path fill="#1b1a18" opacity="1.00"
          d=" M 475.67 27.58 C 476.84 27.08 478.12 26.05 479.43 26.77 C 483.03 28.21 486.21 30.49 489.58 32.40 C 544.54 64.11 599.48 95.85 654.44 127.55 C 686.25 145.82 717.87 164.44 749.81 182.47 C 750.26 229.31 749.88 276.16 750.00 323.00 C 749.98 378.40 750.05 433.80 749.97 489.20 C 741.92 489.30 733.87 489.25 725.83 489.25 C 725.56 475.46 725.83 461.66 725.68 447.88 C 718.23 456.06 711.37 464.76 704.10 473.10 C 701.94 475.66 699.45 478.03 697.92 481.06 C 697.50 483.74 697.42 486.46 697.26 489.18 C 551.25 489.33 405.24 489.24 259.23 489.22 C 259.53 482.79 260.39 475.84 256.98 470.02 C 248.84 455.15 241.09 440.07 232.76 425.30 C 232.23 424.25 231.75 423.19 231.27 422.13 C 231.52 444.48 231.35 466.85 231.33 489.20 C 223.23 489.30 215.12 489.29 207.02 489.20 C 206.97 423.80 207.01 358.40 207.00 293.00 C 206.87 261.51 207.25 230.01 206.81 198.52 C 201.09 195.34 195.15 192.45 189.88 188.55 C 182.74 181.87 173.64 177.96 165.90 172.10 C 161.78 168.95 157.30 166.04 154.24 161.76 C 150.23 156.36 147.90 149.99 145.06 143.96 C 142.51 138.68 142.48 132.70 141.98 126.99 C 141.53 121.95 143.03 117.05 144.25 112.23 C 145.91 105.31 149.86 99.29 153.02 93.00 C 156.77 86.59 160.17 79.79 165.54 74.54 C 168.39 71.73 171.10 68.75 174.23 66.24 C 187.89 56.64 203.93 49.51 220.86 49.34 C 227.13 50.10 233.42 50.98 239.55 52.52 C 246.17 55.03 252.70 58.21 257.98 63.03 C 266.14 70.20 274.79 76.83 282.43 84.59 C 289.08 90.88 295.49 97.44 302.24 103.62 C 307.99 108.10 312.70 113.95 318.95 117.74 C 322.84 116.33 326.22 113.86 329.81 111.86 C 378.41 83.73 427.09 55.73 475.67 27.58 M 189.77 68.75 C 173.57 79.43 161.01 95.75 155.33 114.34 C 152.07 125.37 151.19 137.60 155.47 148.48 C 158.43 155.86 164.03 162.70 171.77 165.29 C 173.17 167.30 175.95 167.34 178.12 167.86 C 194.55 170.87 211.26 164.16 224.00 154.03 C 237.66 143.02 248.41 128.08 253.04 111.04 C 256.26 99.27 256.41 86.16 250.97 75.00 C 250.19 73.58 249.53 71.89 248.06 71.06 C 242.82 63.11 233.30 58.86 223.98 58.54 C 211.79 57.78 199.88 62.23 189.77 68.75 M 476.60 64.52 C 429.07 92.25 381.23 119.46 333.72 147.22 C 342.15 155.27 350.88 163.03 359.86 170.47 C 396.32 149.83 432.49 128.68 468.82 107.83 C 472.11 106.10 475.09 103.51 478.77 102.70 C 482.58 104.12 485.87 106.61 489.43 108.55 C 558.82 148.50 628.13 188.59 697.57 228.46 C 697.64 269.97 697.44 311.48 697.67 352.98 C 707.27 360.00 716.57 367.39 725.77 374.91 C 725.65 318.69 725.75 262.46 725.72 206.24 C 643.96 158.98 562.11 111.87 480.39 64.55 C 479.19 63.78 477.77 63.56 476.60 64.52 M 265.47 85.76 C 265.86 92.78 266.22 99.89 264.85 106.84 C 260.80 129.33 247.25 149.46 229.27 163.29 C 218.79 171.01 206.78 176.90 193.80 178.76 C 199.03 182.55 204.91 185.27 210.44 188.56 C 220.13 194.21 229.93 199.67 239.65 205.27 C 242.12 206.77 245.04 207.39 247.90 206.92 C 266.31 204.62 283.51 194.62 294.85 179.96 C 306.50 165.28 311.72 146.63 313.95 128.30 C 306.63 121.15 298.67 114.71 291.07 107.88 C 282.49 100.56 274.35 92.72 265.47 85.76 M 475.65 140.58 C 445.53 158.20 415.14 175.37 385.08 193.11 C 387.45 195.27 389.62 197.75 392.45 199.33 C 395.68 199.65 398.85 198.50 402.01 197.98 C 424.71 193.48 447.91 191.94 471.02 192.25 C 489.40 192.17 507.76 193.63 526.00 195.91 C 534.18 196.84 541.46 200.97 548.93 204.12 C 572.73 215.18 596.39 226.64 619.11 239.80 C 622.04 241.29 624.45 243.78 624.88 247.16 C 629.91 270.13 634.94 293.10 640.05 316.05 C 640.42 318.97 643.46 319.99 645.69 321.24 C 653.42 324.86 660.59 329.53 668.24 333.34 C 668.72 307.23 668.21 281.11 668.50 254.99 C 668.40 252.20 669.09 248.51 665.89 247.19 C 604.11 211.63 542.40 175.90 480.67 140.25 C 479.05 139.07 477.18 139.49 475.65 140.58 M 324.99 153.96 C 324.16 156.42 323.34 158.87 322.51 161.33 C 320.25 167.84 317.54 174.20 314.43 180.35 C 307.60 194.31 294.54 203.72 281.87 212.02 C 316.91 234.71 352.10 257.18 387.14 279.88 C 391.47 282.89 396.96 282.90 401.96 282.00 C 411.39 280.76 420.02 275.02 424.99 266.94 C 427.92 262.03 430.07 256.57 430.91 250.91 C 431.47 248.45 429.24 246.77 427.73 245.24 C 413.58 232.74 399.56 220.10 385.43 207.58 C 381.36 204.04 377.94 199.65 373.10 197.09 C 371.18 194.96 369.10 192.97 366.94 191.09 C 352.91 178.77 339.00 166.30 324.99 153.96 M 454.76 202.97 C 437.34 203.28 419.90 205.22 402.79 208.53 C 404.08 209.82 405.34 211.16 406.90 212.16 C 410.60 215.76 414.27 219.44 418.35 222.62 C 420.31 224.36 423.04 223.70 425.40 223.57 C 447.19 220.88 469.23 222.56 490.97 224.95 C 493.97 225.54 497.93 225.45 499.74 228.37 C 500.69 234.29 498.74 240.16 498.05 246.01 C 496.41 258.36 493.97 270.61 492.71 283.01 C 497.76 283.31 502.82 283.37 507.88 283.13 C 512.51 257.46 517.63 231.87 521.99 206.16 C 512.30 204.77 502.53 204.11 492.78 203.40 C 483.73 202.75 474.65 203.12 465.61 202.43 C 461.99 202.15 458.32 202.20 454.76 202.97 M 532.38 208.86 C 528.43 231.60 523.69 254.21 520.02 276.99 C 522.92 276.56 525.83 276.10 528.73 275.65 C 531.60 261.38 534.11 247.04 536.63 232.70 C 537.27 230.00 537.67 226.68 540.28 225.10 C 543.38 224.58 546.47 225.61 549.40 226.51 C 569.06 233.35 588.53 240.99 606.74 251.14 C 610.50 252.74 612.12 256.60 612.58 260.42 C 614.01 268.28 615.38 276.16 617.02 283.98 C 618.77 284.08 620.50 284.25 622.25 284.43 C 619.92 273.87 617.65 263.29 615.28 252.74 C 614.91 249.58 612.18 247.78 609.61 246.41 C 590.96 236.09 571.87 226.59 552.60 217.47 C 545.92 214.47 539.42 210.97 532.38 208.86 M 231.34 212.90 C 231.25 249.60 231.34 286.30 231.30 323.01 C 234.76 318.87 237.96 314.52 241.29 310.28 C 242.64 308.71 244.01 306.79 246.20 306.41 C 250.62 305.54 255.14 305.40 259.60 304.81 C 259.69 279.28 259.29 253.74 259.80 228.22 C 265.53 225.11 271.14 221.77 276.82 218.57 C 273.95 216.51 271.01 214.54 268.00 212.68 C 259.62 215.38 250.99 218.30 242.06 217.74 C 238.13 217.12 234.85 214.61 231.34 212.90 M 431.37 233.70 C 435.10 237.92 440.36 241.47 441.73 247.25 C 442.30 252.81 440.20 258.21 438.45 263.40 C 433.74 276.87 422.40 288.00 408.40 291.38 C 395.22 295.27 381.70 290.81 368.34 291.00 C 367.30 295.02 366.19 299.02 365.08 303.02 C 392.08 301.03 419.01 298.22 446.00 296.12 C 452.56 296.45 453.31 287.56 459.23 286.40 C 466.59 284.66 474.20 284.43 481.70 283.69 C 484.01 267.56 486.57 251.47 488.93 235.35 C 469.84 233.32 450.52 231.65 431.37 233.70 M 546.93 236.86 C 544.44 248.02 542.71 259.33 540.54 270.55 C 539.59 275.88 538.18 281.18 538.29 286.63 C 540.71 282.71 541.06 277.86 542.14 273.40 C 549.76 272.92 557.37 272.13 565.01 272.11 C 578.52 272.28 592.01 274.07 605.03 277.74 C 604.04 271.95 602.90 266.18 601.63 260.44 C 584.30 250.66 565.66 243.46 546.93 236.86 M 304.66 239.56 C 299.11 242.31 293.87 245.65 288.57 248.84 C 288.62 266.38 288.40 283.92 288.69 301.46 C 294.80 301.16 300.89 300.52 306.98 299.89 C 308.60 299.66 310.34 299.59 311.82 298.79 C 313.55 296.67 314.44 294.03 315.59 291.58 C 320.84 279.41 326.84 267.57 331.83 255.29 C 325.00 250.78 318.09 246.37 311.44 241.59 C 309.41 240.45 307.10 238.11 304.66 239.56 M 329.16 287.05 C 327.58 290.36 326.13 293.73 324.89 297.19 C 329.78 298.33 333.22 302.04 336.81 305.26 C 339.02 299.63 340.86 293.86 342.75 288.11 C 338.24 287.60 333.70 287.23 329.16 287.05 M 491.65 294.00 C 483.08 293.82 474.50 294.78 466.01 295.88 C 463.04 295.97 460.94 298.12 459.32 300.37 C 450.98 311.32 442.26 321.99 434.01 333.01 C 435.23 332.95 436.46 332.88 437.69 332.82 C 455.46 333.30 473.24 332.79 491.01 333.11 C 493.62 332.98 496.57 333.38 498.83 331.76 C 501.52 329.86 503.79 327.44 506.22 325.22 C 516.51 315.76 527.04 306.56 537.21 296.96 C 527.92 295.29 518.47 294.77 509.07 294.13 C 503.27 293.85 497.41 292.70 491.65 294.00 M 548.85 300.78 C 534.85 313.55 520.78 326.25 506.76 339.01 C 508.59 341.68 510.52 344.27 512.55 346.80 C 521.69 338.53 530.85 330.26 540.04 322.05 C 543.07 319.40 545.77 316.37 549.12 314.11 C 551.49 312.33 554.57 313.34 557.20 313.83 C 575.58 318.46 593.78 323.88 611.57 330.44 C 641.21 341.46 670.30 355.14 695.30 374.76 C 702.04 379.89 707.70 386.20 713.81 392.02 C 714.62 388.15 715.26 384.25 715.77 380.33 C 695.28 363.60 673.63 348.15 650.35 335.52 C 620.78 319.15 588.83 306.98 555.73 300.05 C 553.46 299.71 550.65 298.79 548.85 300.78 M 406.02 309.58 C 385.69 311.27 365.41 313.62 345.18 316.19 C 339.57 316.50 337.11 322.31 334.66 326.50 C 333.00 327.96 331.93 329.94 330.72 331.76 C 323.84 342.82 316.18 353.41 309.89 364.82 C 320.95 364.52 331.98 363.51 343.03 362.93 C 370.37 361.17 397.72 359.72 425.04 357.81 C 422.76 351.21 418.95 345.02 417.99 338.03 C 418.81 333.39 422.98 330.30 425.58 326.59 C 430.25 320.15 435.82 314.35 439.74 307.40 L 440.59 307.22 C 429.03 307.24 417.54 308.77 406.02 309.58 M 287.40 312.47 C 283.24 312.87 279.03 313.01 274.96 313.99 C 268.58 314.23 262.24 315.12 255.89 315.71 C 253.86 316.00 251.71 316.02 249.84 316.94 C 247.64 318.73 246.15 321.20 244.43 323.42 C 238.39 331.63 231.67 339.34 225.96 347.79 C 227.87 347.50 229.77 347.21 231.68 346.92 C 249.39 345.79 267.04 343.84 284.75 342.62 C 286.98 342.37 289.30 342.25 291.41 341.37 C 294.29 338.87 296.07 335.39 298.37 332.39 C 303.94 324.93 309.46 317.43 314.97 309.92 C 305.74 310.27 296.60 311.68 287.40 312.47 M 327.34 311.03 C 323.35 316.48 319.11 321.75 315.30 327.33 C 313.93 328.91 315.12 330.84 315.53 332.54 C 320.42 326.33 325.00 319.88 330.11 313.84 C 329.18 312.90 328.26 311.97 327.34 311.03 M 560.22 325.81 C 560.97 328.34 561.75 330.87 562.53 333.40 C 571.98 335.80 581.18 339.11 590.72 341.15 C 591.37 339.15 592.04 337.17 592.71 335.19 C 582.01 331.65 571.28 328.05 560.22 325.81 M 537.17 340.17 C 535.72 341.61 534.13 343.02 533.26 344.91 C 534.30 346.69 535.67 348.25 536.98 349.85 C 541.94 345.51 547.21 341.43 551.66 336.56 C 551.97 333.58 550.60 330.76 549.82 327.95 C 545.47 331.88 541.46 336.17 537.17 340.17 M 602.86 338.76 C 602.11 340.75 601.39 342.76 600.69 344.77 C 610.81 348.19 620.52 352.70 630.65 356.09 C 631.43 354.20 632.21 352.31 632.99 350.42 C 622.99 346.44 613.21 341.81 602.86 338.76 M 430.98 343.99 C 431.40 345.60 431.84 347.22 432.27 348.84 C 437.84 349.20 443.42 349.21 449.00 349.14 C 466.38 348.91 483.78 349.54 501.15 348.85 C 499.74 347.24 498.44 345.48 496.67 344.24 C 494.84 343.72 492.91 343.77 491.04 343.74 C 471.02 344.08 450.99 343.64 430.98 343.99 M 504.69 372.72 C 506.99 372.79 509.34 373.13 511.63 372.66 C 513.85 371.71 515.52 369.88 517.26 368.27 C 521.13 364.39 525.36 360.90 529.28 357.07 C 527.88 355.40 526.49 353.72 525.10 352.05 C 518.23 358.86 510.54 364.96 504.69 372.72 M 223.65 358.33 C 224.79 360.20 225.95 362.07 227.13 363.93 C 249.46 361.67 271.88 360.37 294.18 357.94 C 293.18 356.22 292.59 354.07 290.91 352.89 C 289.27 352.67 287.62 352.78 285.98 352.89 C 265.23 354.93 244.43 356.52 223.65 358.33 M 642.98 355.08 C 641.95 356.95 640.93 358.83 639.93 360.72 C 649.40 365.36 658.59 370.50 667.67 375.84 C 668.70 373.98 669.73 372.14 670.77 370.29 C 661.75 364.79 652.45 359.75 642.98 355.08 M 427.81 370.59 C 446.89 370.78 465.96 370.48 485.04 370.74 C 487.46 370.65 490.25 370.98 492.19 369.20 C 495.54 366.50 498.32 363.19 501.22 360.03 C 480.80 359.63 460.37 360.03 439.95 359.81 C 433.57 359.31 430.84 366.22 427.81 370.59 M 265.95 371.15 C 254.44 372.29 242.85 372.72 231.38 374.29 C 229.77 377.19 228.21 380.12 226.77 383.11 C 244.54 382.88 262.24 380.80 280.00 380.14 C 282.43 379.82 285.49 380.38 287.19 378.19 C 289.65 375.46 291.39 372.18 293.24 369.03 C 284.12 369.34 275.05 370.45 265.95 371.15 M 676.09 381.73 C 683.25 386.61 689.84 392.24 696.13 398.19 C 697.59 396.79 699.06 395.40 700.52 394.00 C 694.42 387.30 687.28 381.65 679.86 376.49 C 678.59 378.23 677.34 379.98 676.09 381.73 M 297.07 383.09 C 297.63 385.78 299.11 388.15 300.41 390.54 C 303.96 396.65 306.95 403.06 310.71 409.05 C 312.08 407.07 313.45 405.09 314.82 403.11 C 309.91 394.75 305.64 386.04 300.66 377.72 C 299.34 379.42 297.87 381.07 297.07 383.09 M 427.83 381.23 C 432.21 390.98 437.88 400.07 442.44 409.74 C 462.02 410.27 481.63 409.97 501.22 409.89 C 497.67 400.24 493.39 390.88 489.52 381.35 C 468.96 381.20 448.39 381.44 427.83 381.23 M 501.90 382.76 C 504.64 390.77 508.12 398.50 511.44 406.29 C 513.27 405.18 515.30 404.25 516.72 402.60 C 517.17 400.04 515.61 397.62 514.78 395.28 C 512.93 391.48 511.80 387.20 509.06 383.91 C 506.78 383.04 504.29 383.03 501.90 382.76 M 723.00 401.99 C 722.72 404.65 724.52 406.86 725.63 409.12 C 725.78 401.71 725.72 394.30 725.68 386.89 C 724.68 391.90 723.48 396.89 723.00 401.99 M 257.96 392.05 C 248.19 392.84 238.38 393.04 228.63 394.15 C 231.67 401.02 235.45 407.51 239.03 414.11 C 259.44 414.21 279.85 413.33 300.25 412.84 C 296.76 405.09 292.12 397.93 288.54 390.23 C 278.33 390.42 268.16 391.47 257.96 392.05 M 703.74 405.93 C 706.96 410.48 710.63 414.74 713.24 419.70 C 714.44 421.82 715.39 424.14 717.04 425.98 C 718.63 426.69 720.36 427.00 722.06 427.43 C 719.53 417.88 714.10 409.35 707.82 401.83 C 706.45 403.19 705.09 404.56 703.74 405.93 M 515.91 416.27 C 519.21 425.67 523.39 434.74 527.17 443.95 C 529.45 442.38 531.72 440.78 533.96 439.14 C 529.92 430.15 526.15 421.03 521.85 412.15 C 519.87 413.52 517.89 414.90 515.91 416.27 M 320.29 413.69 C 318.97 415.46 317.49 417.14 316.57 419.16 C 317.03 421.49 318.33 423.54 319.44 425.61 C 322.81 431.39 325.65 437.48 329.45 443.02 C 330.65 440.97 331.86 438.94 333.07 436.90 C 329.19 428.97 325.06 421.13 320.29 413.69 M 448.91 420.98 C 453.35 430.08 458.14 439.02 463.16 447.82 C 481.11 447.49 499.07 447.79 517.03 447.81 C 513.69 438.72 509.80 429.85 505.98 420.95 C 486.96 420.82 467.93 420.78 448.91 420.98 M 244.93 425.02 C 248.51 432.40 252.72 439.44 256.38 446.78 C 277.24 447.37 298.13 446.61 318.99 447.70 C 316.49 441.27 312.70 435.50 309.60 429.38 C 308.56 427.45 307.59 425.46 306.16 423.80 C 304.86 423.41 303.49 423.38 302.15 423.37 C 283.09 424.22 263.98 423.91 244.93 425.02 M 714.32 436.80 C 710.52 439.29 707.86 443.11 704.98 446.56 C 706.36 447.86 707.75 449.16 709.14 450.47 C 712.99 446.45 716.54 442.17 720.04 437.85 C 718.15 437.42 716.27 436.67 714.32 436.80 M 334.98 453.90 C 338.82 461.00 342.42 468.25 346.72 475.10 C 348.30 473.37 349.88 471.65 351.46 469.93 C 347.71 462.65 343.93 455.35 339.61 448.41 C 337.02 448.66 336.45 452.12 334.98 453.90 M 531.31 454.07 C 534.25 460.85 536.83 467.80 540.15 474.42 C 542.25 471.79 544.13 468.98 545.81 466.07 C 543.32 460.47 541.06 454.76 538.11 449.39 C 535.82 450.93 533.56 452.49 531.31 454.07 M 684.14 467.90 C 685.16 470.66 686.20 473.42 687.28 476.17 C 692.52 470.67 697.32 464.79 702.19 458.96 C 700.72 457.27 699.26 455.58 697.80 453.89 C 692.98 458.29 688.52 463.07 684.14 467.90 M 262.17 457.14 C 265.88 464.33 269.44 471.62 273.59 478.57 C 274.99 481.23 278.42 480.53 280.91 480.83 C 299.66 480.85 318.40 480.97 337.15 480.76 C 333.56 472.94 329.24 465.49 324.95 458.05 C 304.01 458.13 283.10 457.22 262.17 457.14 M 468.82 458.20 C 471.38 464.10 474.69 469.61 477.55 475.36 C 478.62 477.35 479.59 479.47 481.28 481.04 C 485.14 481.72 489.09 481.35 493.00 481.38 C 505.68 481.18 518.36 481.68 531.03 481.12 C 528.10 473.43 524.77 465.90 521.63 458.30 C 504.03 458.25 486.43 458.42 468.82 458.20 M 554.28 472.19 C 552.38 475.23 550.50 478.29 548.78 481.45 C 554.15 482.40 559.59 481.51 565.00 481.60 C 569.56 481.64 574.12 481.68 578.68 481.69 C 578.68 478.51 578.70 475.34 578.75 472.17 C 570.59 471.92 562.43 471.84 554.28 472.19 M 588.99 472.04 C 589.00 475.09 589.01 478.14 589.03 481.20 C 597.76 481.47 606.51 481.48 615.25 481.18 C 615.28 478.13 615.29 475.09 615.27 472.05 C 606.51 471.95 597.75 471.97 588.99 472.04 M 625.97 472.05 C 626.00 475.27 626.06 478.50 626.14 481.73 C 632.73 481.63 639.33 481.63 645.93 481.73 C 646.03 478.50 646.10 475.28 646.15 472.05 C 639.42 471.95 632.69 471.95 625.97 472.05 M 656.97 472.05 C 657.00 475.28 657.06 478.50 657.14 481.73 C 664.05 481.62 670.96 481.65 677.87 481.68 C 676.81 478.52 675.72 475.37 674.63 472.22 C 668.75 471.91 662.85 471.90 656.97 472.05 M 355.96 480.72 C 364.59 480.95 373.22 480.87 381.85 480.80 C 381.87 479.24 381.89 477.69 381.91 476.14 C 375.29 476.13 368.65 475.68 362.04 476.11 C 359.26 476.24 357.79 479.00 355.96 480.72 M 392.09 476.10 C 392.08 477.70 392.07 479.30 392.07 480.90 C 402.06 481.05 412.06 481.00 422.05 480.97 C 422.05 479.32 422.04 477.68 422.04 476.05 C 412.06 475.99 402.07 475.93 392.09 476.10 M 432.88 476.04 C 432.89 477.67 432.91 479.30 432.94 480.94 C 437.65 481.04 442.35 481.04 447.06 480.96 C 447.06 479.31 447.06 477.68 447.07 476.04 C 442.33 475.95 437.60 475.95 432.88 476.04 Z"/>
    <path fill="#fea825" opacity="1.00"
          d=" M 189.77 68.75 C 199.88 62.23 211.79 57.78 223.98 58.54 C 233.30 58.86 242.82 63.11 248.06 71.06 C 241.20 68.28 234.13 65.40 226.63 65.29 C 220.92 65.09 215.26 66.12 209.80 67.68 C 195.47 71.29 182.91 80.35 174.00 92.03 C 164.76 103.80 159.18 118.69 159.73 133.75 C 159.80 138.34 160.06 143.01 161.54 147.40 C 163.58 154.06 168.20 159.42 171.77 165.29 C 164.03 162.70 158.43 155.86 155.47 148.48 C 151.19 137.60 152.07 125.37 155.33 114.34 C 161.01 95.75 173.57 79.43 189.77 68.75 Z"/>
    <path fill="#fea825" opacity="1.00"
          d=" M 476.60 64.52 C 477.77 63.56 479.19 63.78 480.39 64.55 C 562.11 111.87 643.96 158.98 725.72 206.24 C 725.75 262.46 725.65 318.69 725.77 374.91 C 716.57 367.39 707.27 360.00 697.67 352.98 C 697.44 311.48 697.64 269.97 697.57 228.46 C 628.13 188.59 558.82 148.50 489.43 108.55 C 485.87 106.61 482.58 104.12 478.77 102.70 C 475.09 103.51 472.11 106.10 468.82 107.83 C 432.49 128.68 396.32 149.83 359.86 170.47 C 350.88 163.03 342.15 155.27 333.72 147.22 C 381.23 119.46 429.07 92.25 476.60 64.52 Z"/>
    <path fill="#615c58" opacity="1.00"
          d=" M 209.80 67.68 C 215.26 66.12 220.92 65.09 226.63 65.29 C 234.13 65.40 241.20 68.28 248.06 71.06 C 249.53 71.89 250.19 73.58 250.97 75.00 C 256.41 86.16 256.26 99.27 253.04 111.04 C 248.41 128.08 237.66 143.02 224.00 154.03 C 211.26 164.16 194.55 170.87 178.12 167.86 C 175.95 167.34 173.17 167.30 171.77 165.29 C 168.20 159.42 163.58 154.06 161.54 147.40 C 160.06 143.01 159.80 138.34 159.73 133.75 C 162.01 141.34 165.18 149.37 171.99 154.01 C 181.26 160.52 193.76 160.11 203.88 155.89 C 218.38 150.42 229.90 138.98 237.73 125.84 C 242.89 116.57 246.34 105.96 245.69 95.25 C 245.11 86.42 241.34 77.34 233.94 72.12 C 226.97 67.26 218.00 66.55 209.80 67.68 Z"/>
    <path fill="#1b1a18" opacity="1.00"
          d=" M 209.80 67.68 C 218.00 66.55 226.97 67.26 233.94 72.12 C 241.34 77.34 245.11 86.42 245.69 95.25 C 246.34 105.96 242.89 116.57 237.73 125.84 C 229.90 138.98 218.38 150.42 203.88 155.89 C 193.76 160.11 181.26 160.52 171.99 154.01 C 165.18 149.37 162.01 141.34 159.73 133.75 C 159.18 118.69 164.76 103.80 174.00 92.03 C 182.91 80.35 195.47 71.29 209.80 67.68 Z"/>
    <path fill="#615c58" opacity="1.00"
          d=" M 265.47 85.76 C 274.35 92.72 282.49 100.56 291.07 107.88 C 298.67 114.71 306.63 121.15 313.95 128.30 C 311.72 146.63 306.50 165.28 294.85 179.96 C 283.51 194.62 266.31 204.62 247.90 206.92 C 245.04 207.39 242.12 206.77 239.65 205.27 C 229.93 199.67 220.13 194.21 210.44 188.56 C 204.91 185.27 199.03 182.55 193.80 178.76 C 206.78 176.90 218.79 171.01 229.27 163.29 C 247.25 149.46 260.80 129.33 264.85 106.84 C 266.22 99.89 265.86 92.78 265.47 85.76 Z"/>
    <path fill="#fea825" opacity="1.00"
          d=" M 475.65 140.58 C 477.18 139.49 479.05 139.07 480.67 140.25 C 542.40 175.90 604.11 211.63 665.89 247.19 C 669.09 248.51 668.40 252.20 668.50 254.99 C 668.21 281.11 668.72 307.23 668.24 333.34 C 660.59 329.53 653.42 324.86 645.69 321.24 C 643.46 319.99 640.42 318.97 640.05 316.05 C 634.94 293.10 629.91 270.13 624.88 247.16 C 624.45 243.78 622.04 241.29 619.11 239.80 C 596.39 226.64 572.73 215.18 548.93 204.12 C 541.46 200.97 534.18 196.84 526.00 195.91 C 507.76 193.63 489.40 192.17 471.02 192.25 C 447.91 191.94 424.71 193.48 402.01 197.98 C 398.85 198.50 395.68 199.65 392.45 199.33 C 389.62 197.75 387.45 195.27 385.08 193.11 C 415.14 175.37 445.53 158.20 475.65 140.58 Z"/>
    <path fill="#fea825" opacity="1.00"
          d=" M 324.99 153.96 C 339.00 166.30 352.91 178.77 366.94 191.09 C 369.10 192.97 371.18 194.96 373.10 197.09 C 369.17 195.06 365.34 192.83 361.80 190.18 C 352.18 183.08 342.42 176.16 332.55 169.40 C 328.98 167.00 325.62 164.30 322.51 161.33 C 323.34 158.87 324.16 156.42 324.99 153.96 Z"/>
    <path fill="#615c58" opacity="1.00"
          d=" M 314.43 180.35 C 317.54 174.20 320.25 167.84 322.51 161.33 C 325.62 164.30 328.98 167.00 332.55 169.40 C 342.42 176.16 352.18 183.08 361.80 190.18 C 365.34 192.83 369.17 195.06 373.10 197.09 C 377.94 199.65 381.36 204.04 385.43 207.58 C 399.56 220.10 413.58 232.74 427.73 245.24 C 429.24 246.77 431.47 248.45 430.91 250.91 C 430.07 256.57 427.92 262.03 424.99 266.94 C 420.02 275.02 411.39 280.76 401.96 282.00 C 396.96 282.90 391.47 282.89 387.14 279.88 C 352.10 257.18 316.91 234.71 281.87 212.02 C 294.54 203.72 307.60 194.31 314.43 180.35 Z"/>
    <path fill="#615c58" opacity="1.00"
          d=" M 454.76 202.97 C 458.32 202.20 461.99 202.15 465.61 202.43 C 474.65 203.12 483.73 202.75 492.78 203.40 C 502.53 204.11 512.30 204.77 521.99 206.16 C 517.63 231.87 512.51 257.46 507.88 283.13 C 502.82 283.37 497.76 283.31 492.71 283.01 C 493.97 270.61 496.41 258.36 498.05 246.01 C 498.74 240.16 500.69 234.29 499.74 228.37 C 497.93 225.45 493.97 225.54 490.97 224.95 C 469.23 222.56 447.19 220.88 425.40 223.57 C 423.04 223.70 420.31 224.36 418.35 222.62 C 414.27 219.44 410.60 215.76 406.90 212.16 C 423.79 208.08 440.96 205.33 458.22 203.35 C 457.07 203.21 455.91 203.08 454.76 202.97 Z"/>
    <path fill="#fea825" opacity="1.00"
          d=" M 402.79 208.53 C 419.90 205.22 437.34 203.28 454.76 202.97 C 455.91 203.08 457.07 203.21 458.22 203.35 C 440.96 205.33 423.79 208.08 406.90 212.16 C 405.34 211.16 404.08 209.82 402.79 208.53 Z"/>
    <path fill="#615c58" opacity="1.00"
          d=" M 532.38 208.86 C 539.42 210.97 545.92 214.47 552.60 217.47 C 571.87 226.59 590.96 236.09 609.61 246.41 C 612.18 247.78 614.91 249.58 615.28 252.74 C 617.65 263.29 619.92 273.87 622.25 284.43 C 620.50 284.25 618.77 284.08 617.02 283.98 C 615.38 276.16 614.01 268.28 612.58 260.42 C 612.12 256.60 610.50 252.74 606.74 251.14 C 588.53 240.99 569.06 233.35 549.40 226.51 C 546.47 225.61 543.38 224.58 540.28 225.10 C 537.67 226.68 537.27 230.00 536.63 232.70 C 534.11 247.04 531.60 261.38 528.73 275.65 C 525.83 276.10 522.92 276.56 520.02 276.99 C 523.69 254.21 528.43 231.60 532.38 208.86 Z"/>
    <path fill="#fea825" opacity="1.00"
          d=" M 231.34 212.90 C 234.85 214.61 238.13 217.12 242.06 217.74 C 250.99 218.30 259.62 215.38 268.00 212.68 C 271.01 214.54 273.95 216.51 276.82 218.57 C 271.14 221.77 265.53 225.11 259.80 228.22 C 259.29 253.74 259.69 279.28 259.60 304.81 C 255.14 305.40 250.62 305.54 246.20 306.41 C 244.01 306.79 242.64 308.71 241.29 310.28 C 237.96 314.52 234.76 318.87 231.30 323.01 C 231.34 286.30 231.25 249.60 231.34 212.90 Z"/>
    <path fill="#615c58" opacity="1.00"
          d=" M 431.37 233.70 C 450.52 231.65 469.84 233.32 488.93 235.35 C 486.57 251.47 484.01 267.56 481.70 283.69 C 474.20 284.43 466.59 284.66 459.23 286.40 C 453.31 287.56 452.56 296.45 446.00 296.12 C 419.01 298.22 392.08 301.03 365.08 303.02 C 366.19 299.02 367.30 295.02 368.34 291.00 C 381.70 290.81 395.22 295.27 408.40 291.38 C 422.40 288.00 433.74 276.87 438.45 263.40 C 440.20 258.21 442.30 252.81 441.73 247.25 C 440.36 241.47 435.10 237.92 431.37 233.70 Z"/>
    <path fill="#615c58" opacity="1.00"
          d=" M 546.93 236.86 C 565.66 243.46 584.30 250.66 601.63 260.44 C 602.90 266.18 604.04 271.95 605.03 277.74 C 592.01 274.07 578.52 272.28 565.01 272.11 C 557.37 272.13 549.76 272.92 542.14 273.40 C 541.06 277.86 540.71 282.71 538.29 286.63 C 538.18 281.18 539.59 275.88 540.54 270.55 C 542.71 259.33 544.44 248.02 546.93 236.86 Z"/>
    <path fill="#fea825" opacity="1.00"
          d=" M 304.66 239.56 C 307.10 238.11 309.41 240.45 311.44 241.59 C 318.09 246.37 325.00 250.78 331.83 255.29 C 326.84 267.57 320.84 279.41 315.59 291.58 C 314.44 294.03 313.55 296.67 311.82 298.79 C 310.34 299.59 308.60 299.66 306.98 299.89 C 300.89 300.52 294.80 301.16 288.69 301.46 C 288.40 283.92 288.62 266.38 288.57 248.84 C 293.87 245.65 299.11 242.31 304.66 239.56 Z"/>
    <path fill="#615c58" opacity="1.00"
          d=" M 329.16 287.05 C 333.70 287.23 338.24 287.60 342.75 288.11 C 340.86 293.86 339.02 299.63 336.81 305.26 C 333.22 302.04 329.78 298.33 324.89 297.19 C 326.13 293.73 327.58 290.36 329.16 287.05 Z"/>
    <path fill="#615c58" opacity="1.00"
          d=" M 491.65 294.00 C 497.41 292.70 503.27 293.85 509.07 294.13 C 518.47 294.77 527.92 295.29 537.21 296.96 C 527.04 306.56 516.51 315.76 506.22 325.22 C 503.79 327.44 501.52 329.86 498.83 331.76 C 496.57 333.38 493.62 332.98 491.01 333.11 C 473.24 332.79 455.46 333.30 437.69 332.82 C 444.27 324.13 451.93 316.34 458.75 307.85 C 461.49 304.57 464.25 300.82 468.54 299.51 C 476.87 296.85 485.63 295.99 494.17 294.24 C 493.54 294.18 492.28 294.06 491.65 294.00 Z"/>
    <path fill="#fea825" opacity="1.00"
          d=" M 466.01 295.88 C 474.50 294.78 483.08 293.82 491.65 294.00 C 492.28 294.06 493.54 294.18 494.17 294.24 C 485.63 295.99 476.87 296.85 468.54 299.51 C 464.25 300.82 461.49 304.57 458.75 307.85 C 451.93 316.34 444.27 324.13 437.69 332.82 C 436.46 332.88 435.23 332.95 434.01 333.01 C 442.26 321.99 450.98 311.32 459.32 300.37 C 460.94 298.12 463.04 295.97 466.01 295.88 Z"/>
    <path fill="#615c58" opacity="1.00"
          d=" M 548.85 300.78 C 550.65 298.79 553.46 299.71 555.73 300.05 C 588.83 306.98 620.78 319.15 650.35 335.52 C 673.63 348.15 695.28 363.60 715.77 380.33 C 715.26 384.25 714.62 388.15 713.81 392.02 C 707.70 386.20 702.04 379.89 695.30 374.76 C 670.30 355.14 641.21 341.46 611.57 330.44 C 593.78 323.88 575.58 318.46 557.20 313.83 C 554.57 313.34 551.49 312.33 549.12 314.11 C 545.77 316.37 543.07 319.40 540.04 322.05 C 530.85 330.26 521.69 338.53 512.55 346.80 C 510.52 344.27 508.59 341.68 506.76 339.01 C 520.78 326.25 534.85 313.55 548.85 300.78 Z"/>
    <path fill="#fea825" opacity="1.00"
          d=" M 406.02 309.58 C 417.54 308.77 429.03 307.24 440.59 307.22 L 439.74 307.40 C 404.74 313.89 369.75 320.52 334.66 326.50 C 337.11 322.31 339.57 316.50 345.18 316.19 C 365.41 313.62 385.69 311.27 406.02 309.58 Z"/>
    <path fill="#615c58" opacity="1.00"
          d=" M 334.66 326.50 C 369.75 320.52 404.74 313.89 439.74 307.40 C 435.82 314.35 430.25 320.15 425.58 326.59 C 422.98 330.30 418.81 333.39 417.99 338.03 C 418.95 345.02 422.76 351.21 425.04 357.81 C 397.72 359.72 370.37 361.17 343.03 362.93 C 331.98 363.51 320.95 364.52 309.89 364.82 C 316.18 353.41 323.84 342.82 330.72 331.76 C 331.93 329.94 333.00 327.96 334.66 326.50 Z"/>
    <path fill="#615c58" opacity="1.00"
          d=" M 287.40 312.47 C 296.60 311.68 305.74 310.27 314.97 309.92 C 309.46 317.43 303.94 324.93 298.37 332.39 C 296.07 335.39 294.29 338.87 291.41 341.37 C 289.30 342.25 286.98 342.37 284.75 342.62 C 267.04 343.84 249.39 345.79 231.68 346.92 C 236.65 339.85 241.89 332.98 246.81 325.88 C 248.87 322.95 251.22 319.76 254.93 318.92 C 261.58 317.16 268.36 315.95 274.96 313.99 C 279.03 313.01 283.24 312.87 287.40 312.47 Z"/>
    <path fill="#615c58" opacity="1.00"
          d=" M 327.34 311.03 C 328.26 311.97 329.18 312.90 330.11 313.84 C 325.00 319.88 320.42 326.33 315.53 332.54 C 315.12 330.84 313.93 328.91 315.30 327.33 C 319.11 321.75 323.35 316.48 327.34 311.03 Z"/>
    <path fill="#fea825" opacity="1.00"
          d=" M 255.89 315.71 C 262.24 315.12 268.58 314.23 274.96 313.99 C 268.36 315.95 261.58 317.16 254.93 318.92 C 251.22 319.76 248.87 322.95 246.81 325.88 C 241.89 332.98 236.65 339.85 231.68 346.92 C 229.77 347.21 227.87 347.50 225.96 347.79 C 231.67 339.34 238.39 331.63 244.43 323.42 C 246.15 321.20 247.64 318.73 249.84 316.94 C 251.71 316.02 253.86 316.00 255.89 315.71 Z"/>
    <path fill="#615c58" opacity="1.00"
          d=" M 560.22 325.81 C 571.28 328.05 582.01 331.65 592.71 335.19 C 592.04 337.17 591.37 339.15 590.72 341.15 C 581.18 339.11 571.98 335.80 562.53 333.40 C 561.75 330.87 560.97 328.34 560.22 325.81 Z"/>
    <path fill="#615c58" opacity="1.00"
          d=" M 537.17 340.17 C 541.46 336.17 545.47 331.88 549.82 327.95 C 550.60 330.76 551.97 333.58 551.66 336.56 C 547.21 341.43 541.94 345.51 536.98 349.85 C 535.67 348.25 534.30 346.69 533.26 344.91 C 534.13 343.02 535.72 341.61 537.17 340.17 Z"/>
    <path fill="#615c58" opacity="1.00"
          d=" M 602.86 338.76 C 613.21 341.81 622.99 346.44 632.99 350.42 C 632.21 352.31 631.43 354.20 630.65 356.09 C 620.52 352.70 610.81 348.19 600.69 344.77 C 601.39 342.76 602.11 340.75 602.86 338.76 Z"/>
    <path fill="#615c58" opacity="1.00"
          d=" M 430.98 343.99 C 450.99 343.64 471.02 344.08 491.04 343.74 C 492.91 343.77 494.84 343.72 496.67 344.24 C 498.44 345.48 499.74 347.24 501.15 348.85 C 483.78 349.54 466.38 348.91 449.00 349.14 C 443.42 349.21 437.84 349.20 432.27 348.84 C 431.84 347.22 431.40 345.60 430.98 343.99 Z"/>
    <path fill="#615c58" opacity="1.00"
          d=" M 504.69 372.72 C 510.54 364.96 518.23 358.86 525.10 352.05 C 526.49 353.72 527.88 355.40 529.28 357.07 C 525.36 360.90 521.13 364.39 517.26 368.27 C 515.52 369.88 513.85 371.71 511.63 372.66 C 509.34 373.13 506.99 372.79 504.69 372.72 Z"/>
    <path fill="#615c58" opacity="1.00"
          d=" M 223.65 358.33 C 244.43 356.52 265.23 354.93 285.98 352.89 C 287.62 352.78 289.27 352.67 290.91 352.89 C 292.59 354.07 293.18 356.22 294.18 357.94 C 271.88 360.37 249.46 361.67 227.13 363.93 C 225.95 362.07 224.79 360.20 223.65 358.33 Z"/>
    <path fill="#615c58" opacity="1.00"
          d=" M 642.98 355.08 C 652.45 359.75 661.75 364.79 670.77 370.29 C 669.73 372.14 668.70 373.98 667.67 375.84 C 658.59 370.50 649.40 365.36 639.93 360.72 C 640.93 358.83 641.95 356.95 642.98 355.08 Z"/>
    <path fill="#615c58" opacity="1.00"
          d=" M 427.81 370.59 C 430.84 366.22 433.57 359.31 439.95 359.81 C 460.37 360.03 480.80 359.63 501.22 360.03 C 498.32 363.19 495.54 366.50 492.19 369.20 C 490.25 370.98 487.46 370.65 485.04 370.74 C 465.96 370.48 446.89 370.78 427.81 370.59 Z"/>
    <path fill="#615c58" opacity="1.00"
          d=" M 265.95 371.15 C 275.05 370.45 284.12 369.34 293.24 369.03 C 291.39 372.18 289.65 375.46 287.19 378.19 C 285.49 380.38 282.43 379.82 280.00 380.14 C 262.24 380.80 244.54 382.88 226.77 383.11 C 228.21 380.12 229.77 377.19 231.38 374.29 C 242.85 372.72 254.44 372.29 265.95 371.15 Z"/>
    <path fill="#615c58" opacity="1.00"
          d=" M 676.09 381.73 C 677.34 379.98 678.59 378.23 679.86 376.49 C 687.28 381.65 694.42 387.30 700.52 394.00 C 699.06 395.40 697.59 396.79 696.13 398.19 C 689.84 392.24 683.25 386.61 676.09 381.73 Z"/>
    <path fill="#615c58" opacity="1.00"
          d=" M 297.07 383.09 C 297.87 381.07 299.34 379.42 300.66 377.72 C 305.64 386.04 309.91 394.75 314.82 403.11 C 313.45 405.09 312.08 407.07 310.71 409.05 C 306.95 403.06 303.96 396.65 300.41 390.54 C 299.11 388.15 297.63 385.78 297.07 383.09 Z"/>
    <path fill="#615c58" opacity="1.00"
          d=" M 427.83 381.23 C 448.39 381.44 468.96 381.20 489.52 381.35 C 493.39 390.88 497.67 400.24 501.22 409.89 C 481.63 409.97 462.02 410.27 442.44 409.74 C 437.88 400.07 432.21 390.98 427.83 381.23 Z"/>
    <path fill="#615c58" opacity="1.00"
          d=" M 501.90 382.76 C 504.29 383.03 506.78 383.04 509.06 383.91 C 511.80 387.20 512.93 391.48 514.78 395.28 C 515.61 397.62 517.17 400.04 516.72 402.60 C 515.30 404.25 513.27 405.18 511.44 406.29 C 508.12 398.50 504.64 390.77 501.90 382.76 Z"/>
    <path fill="#fea825" opacity="1.00"
          d=" M 723.00 401.99 C 723.48 396.89 724.68 391.90 725.68 386.89 C 725.72 394.30 725.78 401.71 725.63 409.12 C 724.52 406.86 722.72 404.65 723.00 401.99 Z"/>
    <path fill="#615c58" opacity="1.00"
          d=" M 257.96 392.05 C 268.16 391.47 278.33 390.42 288.54 390.23 C 292.12 397.93 296.76 405.09 300.25 412.84 C 279.85 413.33 259.44 414.21 239.03 414.11 C 235.45 407.51 231.67 401.02 228.63 394.15 C 238.38 393.04 248.19 392.84 257.96 392.05 Z"/>
    <path fill="#615c58" opacity="1.00"
          d=" M 703.74 405.93 C 705.09 404.56 706.45 403.19 707.82 401.83 C 714.10 409.35 719.53 417.88 722.06 427.43 C 720.36 427.00 718.63 426.69 717.04 425.98 C 715.39 424.14 714.44 421.82 713.24 419.70 C 710.63 414.74 706.96 410.48 703.74 405.93 Z"/>
    <path fill="#615c58" opacity="1.00"
          d=" M 515.91 416.27 C 517.89 414.90 519.87 413.52 521.85 412.15 C 526.15 421.03 529.92 430.15 533.96 439.14 C 531.72 440.78 529.45 442.38 527.17 443.95 C 523.39 434.74 519.21 425.67 515.91 416.27 Z"/>
    <path fill="#615c58" opacity="1.00"
          d=" M 320.29 413.69 C 325.06 421.13 329.19 428.97 333.07 436.90 C 331.86 438.94 330.65 440.97 329.45 443.02 C 325.65 437.48 322.81 431.39 319.44 425.61 C 318.33 423.54 317.03 421.49 316.57 419.16 C 317.49 417.14 318.97 415.46 320.29 413.69 Z"/>
    <path fill="#615c58" opacity="1.00"
          d=" M 448.91 420.98 C 467.93 420.78 486.96 420.82 505.98 420.95 C 509.80 429.85 513.69 438.72 517.03 447.81 C 499.07 447.79 481.11 447.49 463.16 447.82 C 458.14 439.02 453.35 430.08 448.91 420.98 Z"/>
    <path fill="#615c58" opacity="1.00"
          d=" M 244.93 425.02 C 263.98 423.91 283.09 424.22 302.15 423.37 C 303.49 423.38 304.86 423.41 306.16 423.80 C 307.59 425.46 308.56 427.45 309.60 429.38 C 312.70 435.50 316.49 441.27 318.99 447.70 C 298.13 446.61 277.24 447.37 256.38 446.78 C 252.72 439.44 248.51 432.40 244.93 425.02 Z"/>
    <path fill="#fea825" opacity="1.00"
          d=" M 231.52 438.00 C 231.43 433.73 231.85 429.47 232.76 425.30 C 241.09 440.07 248.84 455.15 256.98 470.02 C 260.39 475.84 259.53 482.79 259.23 489.22 C 250.06 489.22 240.90 489.38 231.74 489.16 C 231.37 472.11 231.81 455.05 231.52 438.00 Z"/>
    <path fill="#615c58" opacity="1.00"
          d=" M 714.32 436.80 C 716.27 436.67 718.15 437.42 720.04 437.85 C 716.54 442.17 712.99 446.45 709.14 450.47 C 707.75 449.16 706.36 447.86 704.98 446.56 C 707.86 443.11 710.52 439.29 714.32 436.80 Z"/>
    <path fill="#615c58" opacity="1.00"
          d=" M 334.98 453.90 C 336.45 452.12 337.02 448.66 339.61 448.41 C 343.93 455.35 347.71 462.65 351.46 469.93 C 349.88 471.65 348.30 473.37 346.72 475.10 C 342.42 468.25 338.82 461.00 334.98 453.90 Z"/>
    <path fill="#fea825" opacity="1.00"
          d=" M 704.10 473.10 C 711.37 464.76 718.23 456.06 725.68 447.88 C 725.83 461.66 725.56 475.46 725.83 489.25 C 716.41 489.24 706.99 489.37 697.58 489.13 C 697.62 486.43 697.66 483.74 697.92 481.06 C 699.45 478.03 701.94 475.66 704.10 473.10 Z"/>
    <path fill="#615c58" opacity="1.00"
          d=" M 531.31 454.07 C 533.56 452.49 535.82 450.93 538.11 449.39 C 541.06 454.76 543.32 460.47 545.81 466.07 C 544.13 468.98 542.25 471.79 540.15 474.42 C 536.83 467.80 534.25 460.85 531.31 454.07 Z"/>
    <path fill="#615c58" opacity="1.00"
          d=" M 684.14 467.90 C 688.52 463.07 692.98 458.29 697.80 453.89 C 699.26 455.58 700.72 457.27 702.19 458.96 C 697.32 464.79 692.52 470.67 687.28 476.17 C 686.20 473.42 685.16 470.66 684.14 467.90 Z"/>
    <path fill="#615c58" opacity="1.00"
          d=" M 262.17 457.14 C 283.10 457.22 304.01 458.13 324.95 458.05 C 329.24 465.49 333.56 472.94 337.15 480.76 C 318.40 480.97 299.66 480.85 280.91 480.83 C 278.42 480.53 274.99 481.23 273.59 478.57 C 269.44 471.62 265.88 464.33 262.17 457.14 Z"/>
    <path fill="#615c58" opacity="1.00"
          d=" M 468.82 458.20 C 486.43 458.42 504.03 458.25 521.63 458.30 C 524.77 465.90 528.10 473.43 531.03 481.12 C 518.36 481.68 505.68 481.18 493.00 481.38 C 489.09 481.35 485.14 481.72 481.28 481.04 C 479.59 479.47 478.62 477.35 477.55 475.36 C 474.69 469.61 471.38 464.10 468.82 458.20 Z"/>
    <path fill="#615c58" opacity="1.00"
          d=" M 554.28 472.19 C 562.43 471.84 570.59 471.92 578.75 472.17 C 578.70 475.34 578.68 478.51 578.68 481.69 C 574.12 481.68 569.56 481.64 565.00 481.60 C 559.59 481.51 554.15 482.40 548.78 481.45 C 550.50 478.29 552.38 475.23 554.28 472.19 Z"/>
    <path fill="#615c58" opacity="1.00"
          d=" M 588.99 472.04 C 597.75 471.97 606.51 471.95 615.27 472.05 C 615.29 475.09 615.28 478.13 615.25 481.18 C 606.51 481.48 597.76 481.47 589.03 481.20 C 589.01 478.14 589.00 475.09 588.99 472.04 Z"/>
    <path fill="#615c58" opacity="1.00"
          d=" M 625.97 472.05 C 632.69 471.95 639.42 471.95 646.15 472.05 C 646.10 475.28 646.03 478.50 645.93 481.73 C 639.33 481.63 632.73 481.63 626.14 481.73 C 626.06 478.50 626.00 475.27 625.97 472.05 Z"/>
    <path fill="#615c58" opacity="1.00"
          d=" M 656.97 472.05 C 662.85 471.90 668.75 471.91 674.63 472.22 C 675.72 475.37 676.81 478.52 677.87 481.68 C 670.96 481.65 664.05 481.62 657.14 481.73 C 657.06 478.50 657.00 475.28 656.97 472.05 Z"/>
    <path fill="#615c58" opacity="1.00"
          d=" M 355.96 480.72 C 357.79 479.00 359.26 476.24 362.04 476.11 C 368.65 475.68 375.29 476.13 381.91 476.14 C 381.89 477.69 381.87 479.24 381.85 480.80 C 373.22 480.87 364.59 480.95 355.96 480.72 Z"/>
    <path fill="#615c58" opacity="1.00"
          d=" M 392.09 476.10 C 402.07 475.93 412.06 475.99 422.04 476.05 C 422.04 477.68 422.05 479.32 422.05 480.97 C 412.06 481.00 402.06 481.05 392.07 480.90 C 392.07 479.30 392.08 477.70 392.09 476.10 Z"/>
    <path fill="#615c58" opacity="1.00"
          d=" M 432.88 476.04 C 437.60 475.95 442.33 475.95 447.07 476.04 C 447.06 477.68 447.06 479.31 447.06 480.96 C 442.35 481.04 437.65 481.04 432.94 480.94 C 432.91 479.30 432.89 477.67 432.88 476.04 Z"/>
    <path fill="#1b1a18" opacity="1.00"
          d=" M 22.80 511.03 C 326.60 511.00 630.39 510.99 934.19 511.03 C 934.29 561.68 934.29 612.33 934.19 662.97 C 630.40 663.00 326.60 663.00 22.80 662.97 C 22.72 612.32 22.73 561.67 22.80 511.03 M 277.40 538.64 C 265.70 540.37 253.91 544.90 245.71 553.71 C 236.47 563.66 233.36 577.84 234.28 591.09 C 234.81 605.04 240.61 619.44 252.22 627.76 C 262.73 635.61 276.15 638.09 289.01 638.06 C 298.56 638.13 308.21 637.20 317.34 634.28 C 327.68 630.87 336.79 623.63 342.01 614.02 C 348.33 602.72 349.22 589.15 347.43 576.55 C 345.57 564.25 338.41 552.73 327.59 546.41 C 312.62 537.53 294.30 536.49 277.40 538.64 M 403.34 538.23 C 391.95 539.49 380.33 542.90 371.54 550.56 C 362.37 558.29 357.51 570.20 356.83 582.01 C 355.97 595.05 358.28 608.99 366.42 619.58 C 374.11 629.84 386.58 635.59 399.08 637.19 C 411.52 638.79 424.29 638.30 436.49 635.27 C 446.41 632.74 455.58 626.93 461.60 618.58 C 469.66 607.66 471.70 593.48 470.40 580.25 C 469.26 567.77 463.30 555.42 452.81 548.21 C 438.53 538.31 420.21 536.60 403.34 538.23 M 744.37 546.32 C 737.64 551.39 733.95 559.73 733.54 568.03 C 732.78 576.99 735.23 586.72 742.16 592.85 C 751.78 601.54 765.24 603.44 777.61 605.02 C 777.18 607.93 777.17 611.63 774.28 613.30 C 770.74 615.12 766.48 614.41 762.89 613.13 C 758.86 611.71 756.26 608.13 752.84 605.81 C 746.65 605.10 740.39 605.63 734.18 605.67 C 734.23 614.04 734.11 622.42 734.25 630.80 C 741.87 633.94 749.84 636.35 758.03 637.37 C 766.92 638.26 775.89 638.28 784.81 637.70 C 794.53 636.98 804.48 633.48 811.28 626.25 C 817.47 619.51 819.10 609.77 817.98 600.94 C 817.26 592.42 812.91 584.07 805.56 579.46 C 795.85 573.37 784.07 572.47 772.93 571.64 C 773.64 568.76 773.81 565.31 776.31 563.32 C 779.24 561.03 783.27 561.47 786.62 562.45 C 791.08 563.74 794.32 567.25 797.38 570.55 C 803.62 570.54 809.87 570.52 816.12 570.60 C 816.29 562.45 816.57 554.28 816.11 546.14 C 814.00 544.25 811.16 543.49 808.57 542.50 C 796.87 538.32 784.26 537.86 771.96 538.21 C 762.28 538.25 752.17 540.29 744.37 546.32 M 138.05 539.07 C 138.02 549.97 137.96 560.86 138.08 571.75 C 141.54 571.67 145.06 572.07 148.46 571.38 C 150.98 569.61 152.93 567.11 155.60 565.55 C 157.71 564.29 160.21 564.09 162.57 563.67 C 162.53 578.35 162.52 593.03 162.58 607.72 C 159.84 608.26 157.10 608.81 154.37 609.36 C 154.33 618.54 154.42 627.72 154.30 636.90 C 173.32 637.11 192.35 636.96 211.37 636.99 C 211.46 627.74 211.62 618.49 211.27 609.25 C 208.62 608.77 205.98 608.27 203.33 607.77 C 203.30 593.04 203.31 578.32 203.33 563.59 C 205.71 564.06 208.23 564.33 210.36 565.61 C 213.01 567.19 214.95 569.68 217.49 571.41 C 220.87 572.05 224.35 571.68 227.77 571.75 C 227.81 560.86 227.75 549.98 227.81 539.10 C 197.89 539.09 167.97 539.13 138.05 539.07 M 481.23 539.12 C 481.31 548.33 481.21 557.54 481.29 566.76 C 483.92 567.26 486.56 567.77 489.21 568.26 C 489.55 581.44 489.47 594.64 489.25 607.83 C 486.58 608.31 483.93 608.83 481.27 609.34 C 481.23 618.54 481.31 627.75 481.22 636.96 C 494.81 637.05 508.40 636.99 522.00 636.99 C 522.00 627.72 522.14 618.45 521.92 609.19 C 519.29 608.74 516.68 608.26 514.06 607.80 C 513.79 601.79 513.77 595.77 514.07 589.77 C 525.03 605.32 535.65 621.13 546.28 636.91 C 562.64 637.10 579.00 636.97 595.37 636.99 C 595.47 627.74 595.61 618.49 595.27 609.25 C 592.62 608.77 589.98 608.27 587.33 607.77 C 587.30 594.63 587.33 581.49 587.32 568.35 C 589.97 567.84 592.64 567.33 595.31 566.85 C 595.56 557.60 595.50 548.33 595.36 539.08 C 581.83 539.11 568.30 539.13 554.77 539.06 C 554.65 548.33 554.59 557.61 554.79 566.88 C 557.45 567.36 560.11 567.87 562.77 568.37 C 562.88 575.27 562.87 582.18 562.80 589.08 C 553.65 575.24 544.67 561.29 535.62 547.39 C 533.74 544.64 532.29 541.48 529.72 539.29 C 513.58 538.82 497.39 539.23 481.23 539.12 M 608.63 539.09 C 608.47 548.34 608.39 557.60 608.69 566.84 C 611.35 567.32 614.00 567.83 616.66 568.34 C 616.67 581.48 616.67 594.63 616.66 607.77 C 614.01 608.27 611.37 608.77 608.72 609.25 C 608.34 618.49 608.51 627.74 608.62 636.99 C 624.86 637.01 641.11 637.02 657.35 636.98 C 657.60 623.59 657.30 610.20 657.50 596.81 C 663.86 609.97 669.45 623.49 675.35 636.87 C 692.22 637.16 709.09 636.94 725.96 636.98 C 725.91 632.40 726.34 627.78 725.74 623.23 C 724.62 620.60 722.05 618.92 720.23 616.79 C 711.55 607.43 703.90 597.17 696.32 586.93 C 704.61 574.91 714.21 563.63 725.95 554.84 C 726.04 549.58 726.02 544.31 725.96 539.05 C 709.10 539.21 692.23 538.97 675.37 539.17 C 669.48 552.19 663.60 565.21 657.45 578.11 C 657.34 565.09 657.61 552.07 657.32 539.06 C 641.09 539.12 624.86 539.10 608.63 539.09 Z"/>
    <path fill="#ffffff" opacity="1.00"
          d=" M 277.40 538.64 C 294.30 536.49 312.62 537.53 327.59 546.41 C 338.41 552.73 345.57 564.25 347.43 576.55 C 349.22 589.15 348.33 602.72 342.01 614.02 C 336.79 623.63 327.68 630.87 317.34 634.28 C 308.21 637.20 298.56 638.13 289.01 638.06 C 276.15 638.09 262.73 635.61 252.22 627.76 C 240.61 619.44 234.81 605.04 234.28 591.09 C 233.36 577.84 236.47 563.66 245.71 553.71 C 253.91 544.90 265.70 540.37 277.40 538.64 M 285.38 567.49 C 278.45 569.05 275.18 576.39 275.01 582.91 C 274.68 590.04 274.53 598.55 280.16 603.83 C 286.05 608.43 295.19 608.56 301.35 604.40 C 306.48 600.71 307.37 593.84 307.50 587.98 C 307.50 582.15 307.20 575.53 303.01 571.02 C 298.47 566.48 291.31 566.11 285.38 567.49 Z"/>
    <path fill="#ffffff" opacity="1.00"
          d=" M 403.34 538.23 C 420.21 536.60 438.53 538.31 452.81 548.21 C 463.30 555.42 469.26 567.77 470.40 580.25 C 471.70 593.48 469.66 607.66 461.60 618.58 C 455.58 626.93 446.41 632.74 436.49 635.27 C 424.29 638.30 411.52 638.79 399.08 637.19 C 386.58 635.59 374.11 629.84 366.42 619.58 C 358.28 608.99 355.97 595.05 356.83 582.01 C 357.51 570.20 362.37 558.29 371.54 550.56 C 380.33 542.90 391.95 539.49 403.34 538.23 M 407.41 567.63 C 399.92 569.64 397.28 578.01 397.37 584.96 C 397.13 592.35 397.84 601.86 405.35 605.61 C 412.21 608.65 421.88 608.05 426.64 601.61 C 429.91 596.74 430.10 590.58 430.00 584.92 C 429.80 579.71 428.88 573.87 424.70 570.28 C 419.98 566.31 413.13 566.14 407.41 567.63 Z"/>
    <path fill="#ffffff" opacity="1.00"
          d=" M 744.37 546.32 C 752.17 540.29 762.28 538.25 771.96 538.21 C 784.26 537.86 796.87 538.32 808.57 542.50 C 811.16 543.49 814.00 544.25 816.11 546.14 C 816.57 554.28 816.29 562.45 816.12 570.60 C 809.87 570.52 803.62 570.54 797.38 570.55 C 794.32 567.25 791.08 563.74 786.62 562.45 C 783.27 561.47 779.24 561.03 776.31 563.32 C 773.81 565.31 773.64 568.76 772.93 571.64 C 784.07 572.47 795.85 573.37 805.56 579.46 C 812.91 584.07 817.26 592.42 817.98 600.94 C 819.10 609.77 817.47 619.51 811.28 626.25 C 804.48 633.48 794.53 636.98 784.81 637.70 C 775.89 638.28 766.92 638.26 758.03 637.37 C 749.84 636.35 741.87 633.94 734.25 630.80 C 734.11 622.42 734.23 614.04 734.18 605.67 C 740.39 605.63 746.65 605.10 752.84 605.81 C 756.26 608.13 758.86 611.71 762.89 613.13 C 766.48 614.41 770.74 615.12 774.28 613.30 C 777.17 611.63 777.18 607.93 777.61 605.02 C 765.24 603.44 751.78 601.54 742.16 592.85 C 735.23 586.72 732.78 576.99 733.54 568.03 C 733.95 559.73 737.64 551.39 744.37 546.32 Z"/>
    <path fill="#ffffff" opacity="1.00"
          d=" M 138.05 539.07 C 167.97 539.13 197.89 539.09 227.81 539.10 C 227.75 549.98 227.81 560.86 227.77 571.75 C 224.35 571.68 220.87 572.05 217.49 571.41 C 214.95 569.68 213.01 567.19 210.36 565.61 C 208.23 564.33 205.71 564.06 203.33 563.59 C 203.31 578.32 203.30 593.04 203.33 607.77 C 205.98 608.27 208.62 608.77 211.27 609.25 C 211.62 618.49 211.46 627.74 211.37 636.99 C 192.35 636.96 173.32 637.11 154.30 636.90 C 154.42 627.72 154.33 618.54 154.37 609.36 C 157.10 608.81 159.84 608.26 162.58 607.72 C 162.52 593.03 162.53 578.35 162.57 563.67 C 160.21 564.09 157.71 564.29 155.60 565.55 C 152.93 567.11 150.98 569.61 148.46 571.38 C 145.06 572.07 141.54 571.67 138.08 571.75 C 137.96 560.86 138.02 549.97 138.05 539.07 Z"/>
    <path fill="#ffffff" opacity="1.00"
          d=" M 481.23 539.12 C 497.39 539.23 513.58 538.82 529.72 539.29 C 532.29 541.48 533.74 544.64 535.62 547.39 C 544.67 561.29 553.65 575.24 562.80 589.08 C 562.87 582.18 562.88 575.27 562.77 568.37 C 560.11 567.87 557.45 567.36 554.79 566.88 C 554.59 557.61 554.65 548.33 554.77 539.06 C 568.30 539.13 581.83 539.11 595.36 539.08 C 595.50 548.33 595.56 557.60 595.31 566.85 C 592.64 567.33 589.97 567.84 587.32 568.35 C 587.33 581.49 587.30 594.63 587.33 607.77 C 589.98 608.27 592.62 608.77 595.27 609.25 C 595.61 618.49 595.47 627.74 595.37 636.99 C 579.00 636.97 562.64 637.10 546.28 636.91 C 535.65 621.13 525.03 605.32 514.07 589.77 C 513.77 595.77 513.79 601.79 514.06 607.80 C 516.68 608.26 519.29 608.74 521.92 609.19 C 522.14 618.45 522.00 627.72 522.00 636.99 C 508.40 636.99 494.81 637.05 481.22 636.96 C 481.31 627.75 481.23 618.54 481.27 609.34 C 483.93 608.83 486.58 608.31 489.25 607.83 C 489.47 594.64 489.55 581.44 489.21 568.26 C 486.56 567.77 483.92 567.26 481.29 566.76 C 481.21 557.54 481.31 548.33 481.23 539.12 Z"/>
    <path fill="#ffffff" opacity="1.00"
          d=" M 608.63 539.09 C 624.86 539.10 641.09 539.12 657.32 539.06 C 657.61 552.07 657.34 565.09 657.45 578.11 C 663.60 565.21 669.48 552.19 675.37 539.17 C 692.23 538.97 709.10 539.21 725.96 539.05 C 726.02 544.31 726.04 549.58 725.95 554.84 C 714.21 563.63 704.61 574.91 696.32 586.93 C 703.90 597.17 711.55 607.43 720.23 616.79 C 722.05 618.92 724.62 620.60 725.74 623.23 C 726.34 627.78 725.91 632.40 725.96 636.98 C 709.09 636.94 692.22 637.16 675.35 636.87 C 669.45 623.49 663.86 609.97 657.50 596.81 C 657.30 610.20 657.60 623.59 657.35 636.98 C 641.11 637.02 624.86 637.01 608.62 636.99 C 608.51 627.74 608.34 618.49 608.72 609.25 C 611.37 608.77 614.01 608.27 616.66 607.77 C 616.67 594.63 616.67 581.48 616.66 568.34 C 614.00 567.83 611.35 567.32 608.69 566.84 C 608.39 557.60 608.47 548.34 608.63 539.09 Z"/>
    <path fill="#1b1a18" opacity="1.00"
          d=" M 285.38 567.49 C 291.31 566.11 298.47 566.48 303.01 571.02 C 307.20 575.53 307.50 582.15 307.50 587.98 C 307.37 593.84 306.48 600.71 301.35 604.40 C 295.19 608.56 286.05 608.43 280.16 603.83 C 274.53 598.55 274.68 590.04 275.01 582.91 C 275.18 576.39 278.45 569.05 285.38 567.49 Z"/>
    <path fill="#1b1a18" opacity="1.00"
          d=" M 407.41 567.63 C 413.13 566.14 419.98 566.31 424.70 570.28 C 428.88 573.87 429.80 579.71 430.00 584.92 C 430.10 590.58 429.91 596.74 426.64 601.61 C 421.88 608.05 412.21 608.65 405.35 605.61 C 397.84 601.86 397.13 592.35 397.37 584.96 C 397.28 578.01 399.92 569.64 407.41 567.63 Z"/>
    <path fill="#1b1a18" opacity="1.00"
          d=" M 207.01 684.79 C 388.00 684.73 568.99 684.70 749.98 684.80 C 749.98 693.23 750.07 701.66 750.01 710.09 C 749.78 711.31 750.21 713.14 748.90 713.87 C 660.61 764.92 572.21 815.79 483.95 866.91 C 481.60 868.01 478.91 870.84 476.32 868.75 C 408.90 829.81 341.48 790.88 274.05 751.96 C 251.71 738.97 229.19 726.27 206.96 713.08 C 207.03 703.65 206.97 694.22 207.01 684.79 M 308.72 706.84 C 308.69 709.31 308.68 711.78 308.69 714.26 C 318.85 714.50 329.03 714.52 339.20 714.26 C 339.22 711.78 339.23 709.31 339.23 706.84 C 329.06 706.62 318.89 706.63 308.72 706.84 M 355.04 706.88 C 357.75 715.00 361.32 722.79 364.07 730.90 C 362.03 731.04 360.00 731.18 357.97 731.33 C 357.17 733.50 356.40 735.68 355.65 737.88 C 359.23 738.08 362.81 738.19 366.38 738.40 C 367.32 739.52 368.21 740.70 369.33 741.67 C 372.89 742.36 376.54 741.97 380.14 741.89 C 376.39 731.48 371.96 721.32 368.06 710.97 C 367.24 709.49 366.98 707.05 364.90 706.92 C 361.63 706.44 358.32 706.76 355.04 706.88 M 383.85 706.88 C 390.64 718.72 397.87 730.31 405.04 741.93 C 409.06 741.93 413.09 741.94 417.11 741.88 C 410.44 729.97 403.03 718.49 395.97 706.81 C 391.93 706.71 387.89 706.70 383.85 706.88 M 407.26 706.86 C 407.69 713.05 405.77 719.97 409.37 725.52 C 411.76 729.57 414.27 733.56 417.10 737.33 C 417.69 727.15 417.42 716.95 417.27 706.77 C 413.93 706.74 410.59 706.77 407.26 706.86 M 423.77 706.81 C 423.53 718.52 423.56 730.25 423.77 741.96 C 427.58 741.95 431.39 741.93 435.21 741.91 C 435.49 730.21 435.43 718.50 435.24 706.81 C 431.41 706.72 427.59 706.72 423.77 706.81 M 445.25 706.93 C 442.40 712.50 436.89 717.23 437.11 723.93 C 437.02 728.03 437.17 732.14 437.30 736.25 C 444.46 726.85 450.85 716.86 457.20 706.90 C 453.21 706.70 449.23 706.70 445.25 706.93 M 464.63 708.65 C 462.21 710.84 459.25 713.39 459.48 716.99 C 458.75 721.97 462.75 725.84 466.55 728.30 C 471.56 729.30 476.75 728.56 481.83 728.86 C 481.85 733.34 481.88 737.82 482.07 742.30 C 488.29 742.26 494.52 736.40 493.82 729.99 C 494.07 725.34 490.05 721.91 486.51 719.61 C 481.30 718.83 476.00 719.48 470.75 719.20 C 470.64 715.01 470.63 710.83 470.62 706.65 C 468.53 706.98 466.19 706.99 464.63 708.65 M 472.64 706.87 C 472.63 708.88 472.64 710.91 472.65 712.94 C 475.64 713.04 478.64 713.14 481.63 713.23 C 481.87 714.37 482.12 715.52 482.38 716.69 C 485.98 716.68 489.59 716.68 493.21 716.59 C 492.45 712.47 489.83 708.53 485.85 707.00 C 481.48 706.25 477.03 706.77 472.64 706.87 M 519.45 707.38 C 516.74 709.19 514.04 711.48 512.69 714.51 C 512.03 720.31 512.46 726.19 512.42 732.02 C 512.21 735.63 515.41 738.00 517.80 740.19 C 520.75 742.98 525.12 741.79 528.77 741.90 C 528.73 739.68 528.70 737.48 528.69 735.28 C 527.22 735.03 525.77 734.79 524.32 734.55 C 524.32 727.80 524.30 721.06 524.30 714.31 C 525.75 714.06 527.21 713.82 528.67 713.58 C 528.69 711.34 528.71 709.10 528.76 706.88 C 525.67 706.89 522.36 706.15 519.45 707.38 M 530.35 706.96 C 530.37 709.16 530.37 711.36 530.36 713.57 C 531.89 713.77 533.42 713.97 534.96 714.19 C 535.25 720.99 535.25 727.80 534.87 734.60 C 533.36 734.83 531.87 735.08 530.38 735.34 C 530.37 737.50 530.35 739.66 530.32 741.83 C 533.41 741.88 536.59 742.34 539.63 741.57 C 543.19 739.25 547.30 735.81 546.78 731.07 C 546.77 726.03 546.86 720.99 546.69 715.96 C 546.80 712.60 543.75 710.50 541.51 708.52 C 538.46 705.73 534.07 706.89 530.35 706.96 M 552.78 706.88 C 559.12 718.79 566.83 729.93 573.37 741.74 C 577.58 741.98 581.79 741.99 586.01 741.90 C 579.14 730.11 571.81 718.60 564.84 706.88 C 560.82 706.70 556.79 706.69 552.78 706.88 M 576.07 706.77 C 576.35 713.06 574.44 720.12 578.22 725.71 C 580.64 729.70 583.12 733.66 585.90 737.42 C 586.55 727.22 586.20 717.00 586.15 706.79 C 582.79 706.74 579.43 706.73 576.07 706.77 M 592.30 706.96 C 592.36 718.59 592.39 730.21 592.29 741.84 C 596.19 741.92 600.09 741.96 603.99 741.97 C 604.15 730.24 604.24 718.50 603.98 706.77 C 600.08 706.68 596.19 706.73 592.30 706.96 M 622.10 706.87 C 625.42 713.84 629.08 720.64 632.45 727.58 C 634.66 732.02 633.99 737.12 634.11 741.91 C 638.00 741.91 641.90 741.90 645.81 741.87 C 645.76 737.21 646.34 732.24 644.06 727.96 C 640.63 720.94 637.05 713.98 633.77 706.88 C 629.88 706.72 625.99 706.72 622.10 706.87 M 646.54 707.47 C 644.19 710.52 642.01 714.04 641.37 717.88 C 642.36 721.84 644.67 725.30 646.45 728.94 C 650.54 721.74 654.01 714.20 657.84 706.87 C 654.11 706.91 650.07 705.99 646.54 707.47 M 353.43 708.88 C 349.20 719.84 345.09 730.84 341.04 741.87 C 344.89 741.95 348.73 741.94 352.58 741.80 C 354.13 735.36 357.05 729.30 358.33 722.81 C 357.94 717.85 355.34 713.38 353.43 708.88 M 552.42 710.86 C 552.23 721.21 552.43 731.56 552.28 741.90 C 555.74 741.91 559.20 741.90 562.66 741.86 C 562.45 736.82 563.21 731.68 562.14 726.72 C 559.66 721.02 555.93 715.96 552.42 710.86 M 383.96 711.49 C 383.34 721.62 383.64 731.79 383.75 741.93 C 387.09 741.91 390.43 741.90 393.77 741.88 C 393.38 735.72 395.31 728.84 391.74 723.32 C 389.35 719.25 386.85 715.22 383.96 711.49 M 317.93 716.26 C 317.68 724.81 317.69 733.37 317.92 741.93 C 321.92 741.94 325.93 741.94 329.94 741.92 C 330.14 733.36 330.07 724.79 329.89 716.23 C 325.90 716.25 321.92 716.26 317.93 716.26 M 448.32 723.69 C 445.89 726.97 443.65 730.39 441.60 733.92 C 442.84 736.53 444.06 739.15 445.25 741.78 C 449.50 741.93 453.75 741.96 458.00 741.91 C 454.89 735.78 451.97 729.53 448.32 723.69 M 612.25 730.36 C 612.01 731.81 611.79 733.26 611.57 734.73 C 609.70 734.88 607.82 735.02 605.96 735.18 C 605.94 737.42 605.94 739.66 605.95 741.91 C 611.40 741.96 616.85 741.95 622.29 741.93 C 622.42 738.07 622.38 734.20 622.12 730.35 C 618.83 730.39 615.54 730.39 612.25 730.36 M 459.27 731.72 C 459.91 735.66 462.18 739.23 465.49 741.47 C 470.24 742.62 475.20 741.87 480.04 741.92 C 480.04 739.86 480.04 737.81 480.04 735.76 C 477.19 735.68 474.34 735.64 471.50 735.64 C 471.32 734.31 471.14 733.00 470.97 731.69 C 467.07 731.49 463.16 731.48 459.27 731.72 M 370.90 770.19 C 405.54 790.67 440.62 810.40 475.33 830.77 C 476.87 831.61 478.77 832.88 480.41 831.48 C 515.55 810.88 551.08 790.94 586.12 770.18 C 563.09 769.91 540.04 770.14 517.00 770.07 C 468.30 770.15 419.59 769.90 370.90 770.19 Z"/>
    <path fill="#fea825" opacity="1.00"
          d=" M 308.72 706.84 C 318.89 706.63 329.06 706.62 339.23 706.84 C 339.23 709.31 339.22 711.78 339.20 714.26 C 329.03 714.52 318.85 714.50 308.69 714.26 C 308.68 711.78 308.69 709.31 308.72 706.84 Z"/>
    <path fill="#fea825" opacity="1.00"
          d=" M 355.04 706.88 C 358.32 706.76 361.63 706.44 364.90 706.92 C 366.98 707.05 367.24 709.49 368.06 710.97 C 371.96 721.32 376.39 731.48 380.14 741.89 C 376.54 741.97 372.89 742.36 369.33 741.67 C 368.21 740.70 367.32 739.52 366.38 738.40 C 362.81 738.19 359.23 738.08 355.65 737.88 C 356.40 735.68 357.17 733.50 357.97 731.33 C 360.00 731.18 362.03 731.04 364.07 730.90 C 361.32 722.79 357.75 715.00 355.04 706.88 Z"/>
    <path fill="#fea825" opacity="1.00"
          d=" M 383.85 706.88 C 387.89 706.70 391.93 706.71 395.97 706.81 C 403.03 718.49 410.44 729.97 417.11 741.88 C 413.09 741.94 409.06 741.93 405.04 741.93 C 397.87 730.31 390.64 718.72 383.85 706.88 Z"/>
    <path fill="#fea825" opacity="1.00"
          d=" M 407.26 706.86 C 410.59 706.77 413.93 706.74 417.27 706.77 C 417.42 716.95 417.69 727.15 417.10 737.33 C 414.27 733.56 411.76 729.57 409.37 725.52 C 405.77 719.97 407.69 713.05 407.26 706.86 Z"/>
    <path fill="#fea825" opacity="1.00"
          d=" M 423.77 706.81 C 427.59 706.72 431.41 706.72 435.24 706.81 C 435.43 718.50 435.49 730.21 435.21 741.91 C 431.39 741.93 427.58 741.95 423.77 741.96 C 423.56 730.25 423.53 718.52 423.77 706.81 Z"/>
    <path fill="#fea825" opacity="1.00"
          d=" M 445.25 706.93 C 449.23 706.70 453.21 706.70 457.20 706.90 C 450.85 716.86 444.46 726.85 437.30 736.25 C 437.17 732.14 437.02 728.03 437.11 723.93 C 436.89 717.23 442.40 712.50 445.25 706.93 Z"/>
    <path fill="#fea825" opacity="1.00"
          d=" M 464.63 708.65 C 466.19 706.99 468.53 706.98 470.62 706.65 C 470.63 710.83 470.64 715.01 470.75 719.20 C 476.00 719.48 481.30 718.83 486.51 719.61 C 490.05 721.91 494.07 725.34 493.82 729.99 C 494.52 736.40 488.29 742.26 482.07 742.30 C 481.88 737.82 481.85 733.34 481.83 728.86 C 476.75 728.56 471.56 729.30 466.55 728.30 C 462.75 725.84 458.75 721.97 459.48 716.99 C 459.25 713.39 462.21 710.84 464.63 708.65 Z"/>
    <path fill="#fea825" opacity="1.00"
          d=" M 472.64 706.87 C 477.03 706.77 481.48 706.25 485.85 707.00 C 489.83 708.53 492.45 712.47 493.21 716.59 C 489.59 716.68 485.98 716.68 482.38 716.69 C 482.12 715.52 481.87 714.37 481.63 713.23 C 478.64 713.14 475.64 713.04 472.65 712.94 C 472.64 710.91 472.63 708.88 472.64 706.87 Z"/>
    <path fill="#fea825" opacity="1.00"
          d=" M 519.45 707.38 C 522.36 706.15 525.67 706.89 528.76 706.88 C 528.71 709.10 528.69 711.34 528.67 713.58 C 527.21 713.82 525.75 714.06 524.30 714.31 C 524.30 721.06 524.32 727.80 524.32 734.55 C 525.77 734.79 527.22 735.03 528.69 735.28 C 528.70 737.48 528.73 739.68 528.77 741.90 C 525.12 741.79 520.75 742.98 517.80 740.19 C 515.41 738.00 512.21 735.63 512.42 732.02 C 512.46 726.19 512.03 720.31 512.69 714.51 C 514.04 711.48 516.74 709.19 519.45 707.38 Z"/>
    <path fill="#fea825" opacity="1.00"
          d=" M 530.35 706.96 C 534.07 706.89 538.46 705.73 541.51 708.52 C 543.75 710.50 546.80 712.60 546.69 715.96 C 546.86 720.99 546.77 726.03 546.78 731.07 C 547.30 735.81 543.19 739.25 539.63 741.57 C 536.59 742.34 533.41 741.88 530.32 741.83 C 530.35 739.66 530.37 737.50 530.38 735.34 C 531.87 735.08 533.36 734.83 534.87 734.60 C 535.25 727.80 535.25 720.99 534.96 714.19 C 533.42 713.97 531.89 713.77 530.36 713.57 C 530.37 711.36 530.37 709.16 530.35 706.96 Z"/>
    <path fill="#fea825" opacity="1.00"
          d=" M 552.78 706.88 C 556.79 706.69 560.82 706.70 564.84 706.88 C 571.81 718.60 579.14 730.11 586.01 741.90 C 581.79 741.99 577.58 741.98 573.37 741.74 C 566.83 729.93 559.12 718.79 552.78 706.88 Z"/>
    <path fill="#fea825" opacity="1.00"
          d=" M 576.07 706.77 C 579.43 706.73 582.79 706.74 586.15 706.79 C 586.20 717.00 586.55 727.22 585.90 737.42 C 583.12 733.66 580.64 729.70 578.22 725.71 C 574.44 720.12 576.35 713.06 576.07 706.77 Z"/>
    <path fill="#fea825" opacity="1.00"
          d=" M 592.30 706.96 C 596.19 706.73 600.08 706.68 603.98 706.77 C 604.24 718.50 604.15 730.24 603.99 741.97 C 600.09 741.96 596.19 741.92 592.29 741.84 C 592.39 730.21 592.36 718.59 592.30 706.96 Z"/>
    <path fill="#fea825" opacity="1.00"
          d=" M 622.10 706.87 C 625.99 706.72 629.88 706.72 633.77 706.88 C 637.05 713.98 640.63 720.94 644.06 727.96 C 646.34 732.24 645.76 737.21 645.81 741.87 C 641.90 741.90 638.00 741.91 634.11 741.91 C 633.99 737.12 634.66 732.02 632.45 727.58 C 629.08 720.64 625.42 713.84 622.10 706.87 Z"/>
    <path fill="#fea825" opacity="1.00"
          d=" M 646.54 707.47 C 650.07 705.99 654.11 706.91 657.84 706.87 C 654.01 714.20 650.54 721.74 646.45 728.94 C 644.67 725.30 642.36 721.84 641.37 717.88 C 642.01 714.04 644.19 710.52 646.54 707.47 Z"/>
    <path fill="#fea825" opacity="1.00"
          d=" M 353.43 708.88 C 355.34 713.38 357.94 717.85 358.33 722.81 C 357.05 729.30 354.13 735.36 352.58 741.80 C 348.73 741.94 344.89 741.95 341.04 741.87 C 345.09 730.84 349.20 719.84 353.43 708.88 Z"/>
    <path fill="#fea825" opacity="1.00"
          d=" M 552.42 710.86 C 555.93 715.96 559.66 721.02 562.14 726.72 C 563.21 731.68 562.45 736.82 562.66 741.86 C 559.20 741.90 555.74 741.91 552.28 741.90 C 552.43 731.56 552.23 721.21 552.42 710.86 Z"/>
    <path fill="#fea825" opacity="1.00"
          d=" M 383.96 711.49 C 386.85 715.22 389.35 719.25 391.74 723.32 C 395.31 728.84 393.38 735.72 393.77 741.88 C 390.43 741.90 387.09 741.91 383.75 741.93 C 383.64 731.79 383.34 721.62 383.96 711.49 Z"/>
    <path fill="#fea825" opacity="1.00"
          d=" M 317.93 716.26 C 321.92 716.26 325.90 716.25 329.89 716.23 C 330.07 724.79 330.14 733.36 329.94 741.92 C 325.93 741.94 321.92 741.94 317.92 741.93 C 317.69 733.37 317.68 724.81 317.93 716.26 Z"/>
    <path fill="#fea825" opacity="1.00"
          d=" M 448.32 723.69 C 451.97 729.53 454.89 735.78 458.00 741.91 C 453.75 741.96 449.50 741.93 445.25 741.78 C 444.06 739.15 442.84 736.53 441.60 733.92 C 443.65 730.39 445.89 726.97 448.32 723.69 Z"/>
    <path fill="#fea825" opacity="1.00"
          d=" M 612.25 730.36 C 615.54 730.39 618.83 730.39 622.12 730.35 C 622.38 734.20 622.42 738.07 622.29 741.93 C 616.85 741.95 611.40 741.96 605.95 741.91 C 605.94 739.66 605.94 737.42 605.96 735.18 C 607.82 735.02 609.70 734.88 611.57 734.73 C 611.79 733.26 612.01 731.81 612.25 730.36 Z"/>
    <path fill="#fea825" opacity="1.00"
          d=" M 459.27 731.72 C 463.16 731.48 467.07 731.49 470.97 731.69 C 471.14 733.00 471.32 734.31 471.50 735.64 C 474.34 735.64 477.19 735.68 480.04 735.76 C 480.04 737.81 480.04 739.86 480.04 741.92 C 475.20 741.87 470.24 742.62 465.49 741.47 C 462.18 739.23 459.91 735.66 459.27 731.72 Z"/>
    <path fill="#fea825" opacity="1.00"
          d=" M 370.90 770.19 C 419.59 769.90 468.30 770.15 517.00 770.07 C 540.04 770.14 563.09 769.91 586.12 770.18 C 551.08 790.94 515.55 810.88 480.41 831.48 C 478.77 832.88 476.87 831.61 475.33 830.77 C 440.62 810.40 405.54 790.67 370.90 770.19 Z"/>
</svg>
